{
	"asset":{
		"version":"2.0",
		"generator":"Houdini GLTF 2.0 Exporter"
	},
	"accessors":[
		{
			"bufferView":0,
			"componentType":5123,
			"count":17196,
			"type":"SCALAR",
			"min":[0
			],
			"max":[17195
			]
		},
		{
			"bufferView":1,
			"componentType":5126,
			"count":17196,
			"type":"VEC3",
			"min":[-19.3695049,-3.26561975,-0.750707746
			],
			"max":[19.3695049,3.26561999,0.750707746
			]
		},
		{
			"bufferView":2,
			"componentType":5126,
			"count":17196,
			"type":"VEC2",
			"min":[-12.7421045,0.499869108
			],
			"max":[12.7418985,1.48757303
			]
		},
		{
			"bufferView":3,
			"componentType":5126,
			"count":17196,
			"type":"VEC3",
			"min":[-1,-1,-1
			],
			"max":[1,1,1
			]
		}
	],
	"buffers":[
		{
			"uri":"composite_data.bin",
			"byteLength":584664,
			"name":"main_buffer"
		}
	],
	"bufferViews":[
		{
			"buffer":0,
			"byteLength":34392,
			"target":34963
		},
		{
			"buffer":0,
			"byteOffset":34392,
			"byteLength":206352,
			"target":34962
		},
		{
			"buffer":0,
			"byteOffset":240744,
			"byteLength":137568,
			"target":34962
		},
		{
			"buffer":0,
			"byteOffset":378312,
			"byteLength":206352,
			"target":34962
		}
	],
	"nodes":[
		{
			"name":"file1",
			"mesh":0
		}
	],
	"meshes":[
		{
			"primitives":[
				{
					"attributes":{
						"NORMAL":3,
						"TEXCOORD_0":2,
						"POSITION":1
					},
					"indices":0
				}
			]
		}
	],
	"scenes":[
		{
			"nodes":[0
			]
		}
	],
	"scene":0
}
